{"title":"The Lords Of Salem 2012 DVDRip X264 AC3 5 1 - Neuton","uid":8403830,"size":1682328646,"categoryP":"video","categoryS":"movies","magnet":"?xt=urn:btih:0ec1c8f1c53067ca460d6b9ae020dde0225d56ea&amp;dn=The+Lords+Of+Salem+2012+DVDRip+X264+AC3+5+1+-+Neuton&amp;tr=udp%3A%2F%2Ftracker.openbittorrent.com%3A80&amp;tr=udp%3A%2F%2Fopen.demonii.com%3A1337&amp;tr=udp%3A%2F%2Ftracker.coppersurfer.tk%3A6969&amp;tr=udp%3A%2F%2Fexodus.desync.com%3A6969","seeders":18,"leechers":1,"uploader":"juggs99","files":2,"time":1366754065,"description":" &lt;a href=&quot;http://www.imdb.com/title/tt1731697/&quot; rel=&quot;nofollow&quot; target=&quot;_NEW&quot;&gt;http://www.imdb.com/title/tt1731697/&lt;/a&gt;\n\nsource: not mine got this encode from afree tracker\n\nFormat version                           : Version 2\nFile size                                : 1.57 GiB\nDuration                                 : 1h 36mn\nOverall bit rate                         : 2 314 Kbps\nEncoded date                             : UTC 2013-04-23 16:49:13\nWriting application                      : mkvmerge v6.1.0 ('Old Devil') built on Mar  2 2013 14:32:37\nWriting library                          : libebml v1.3.0 + libmatroska v1.4.0\n\nVideo\nID                                       : 1\nFormat                                   : AVC\nFormat/Info                              : Advanced Video Codec\nFormat profile                           : &lt;a class=&quot;__cf_email__&quot; href=&quot;/cdn-cgi/l/email-protection&quot; data-cfemail=&quot;165e7f717e565a223827&quot;&gt;[email&amp;#160;protected]&lt;/a&gt;&lt;script cf-hash='f9e31' type=&quot;text/javascript&quot;&gt;\n/* &lt;![CDATA[ */!function(){try{var t=&quot;currentScript&quot;in document?document.currentScript:function(){for(var t=document.getElementsByTagName(&quot;script&quot;),e=t.length;e--;)if(t[e].getAttribute(&quot;cf-hash&quot;))return t[e]}();if(t&amp;&amp;t.previousSibling){var e,r,n,i,c=t.previousSibling,a=c.getAttribute(&quot;data-cfemail&quot;);if(a){for(e=&quot;&quot;,r=parseInt(a.substr(0,2),16),n=2;a.length-n;n+=2)i=parseInt(a.substr(n,2),16)^r,e+=String.fromCharCode(i);e=document.createTextNode(e),c.parentNode.replaceChild(e,c)}}}catch(u){}}();/* ]]&gt; */&lt;/script&gt;\nFormat settings, CABAC                   : Yes\nFormat settings, ReFrames                : 4 frames\nCodec ID                                 : V_MPEG4/ISO/AVC\nDuration                                 : 1h 36mn\nBit rate                                 : 1 864 Kbps\nWidth                                    : 720 pixels\nHeight                                   : 288 pixels\nDisplay aspect ratio                     : 2.500\nFrame rate mode                          : Constant\nFrame rate                               : 25.000 fps\nColor space                              : YUV\nChroma subsampling                       : 4:2:0\nBit depth                                : 8 bits\nScan type                                : Progressive\nBits/(Pixel*Frame)                       : 0.360\nStream size                              : 1.23 GiB (79%)\nWriting library                          : x264 core 130 r2273 b3065e6\n\n\nAudio\nID                                       : 2\nFormat                                   : AC-3\nFormat/Info                              : Audio Coding 3\nMode extension                           : CM (complete main)\nFormat settings, Endianness              : Big\nCodec ID                                 : A_AC3\nDuration                                 : 1h 36mn\nBit rate mode                            : Constant\nBit rate                                 : 448 Kbps\nChannel(s)                               : 6 channels\nChannel positions                        : Front: L C R, Side: L R, LFE\nSampling rate                            : 48.0 KHz\nBit depth                                : 16 bits\nCompression mode                         : Lossy\nStream size                              : 311 MiB (19%)\nLanguage                                 : English\nDefault                                  : Yes\nForced                                   : No\n &lt;a href=&quot;\nhttp://img707.imageshack.us/img707/5339/29642819.png&quot; rel=&quot;nofollow&quot; target=&quot;_NEW&quot;&gt;\nhttp://img707.imageshack.us/img707/5339/29642819.png&lt;/a&gt; &lt;a href=&quot;\nhttp://img844.imageshack.us/img844/5545/70942884.png&quot; rel=&quot;nofollow&quot; target=&quot;_NEW&quot;&gt;\nhttp://img844.imageshack.us/img844/5545/70942884.png&lt;/a&gt; &lt;a href=&quot;\nhttp://img14.imageshack.us/img14/2579/72390816.png&quot; rel=&quot;nofollow&quot; target=&quot;_NEW&quot;&gt;\nhttp://img14.imageshack.us/img14/2579/72390816.png&lt;/a&gt; &lt;a href=&quot;\nhttp://img856.imageshack.us/img856/1204/19072955.png&quot; rel=&quot;nofollow&quot; target=&quot;_NEW&quot;&gt;\nhttp://img856.imageshack.us/img856/1204/19072955.png&lt;/a&gt;","torrent":{"xt":"urn:btih:0ec1c8f1c53067ca460d6b9ae020dde0225d56ea","amp;dn":"The+Lords+Of+Salem+2012+DVDRip+X264+AC3+5+1+-+Neuton","amp;tr":["udp%3A%2F%2Ftracker.openbittorrent.com%3A80","udp%3A%2F%2Fopen.demonii.com%3A1337","udp%3A%2F%2Ftracker.coppersurfer.tk%3A6969","udp%3A%2F%2Fexodus.desync.com%3A6969"],"infoHash":"0ec1c8f1c53067ca460d6b9ae020dde0225d56ea","infoHashBuffer":{"type":"Buffer","data":[14,193,200,241,197,48,103,202,70,13,107,154,224,32,221,224,34,93,86,234]},"announce":[],"urlList":[]}}